<?xml version="1.0" standalone="no"?><!DOCTYPE svg PUBLIC "-//W3C//DTD SVG 1.1//EN" "http://www.w3.org/Graphics/SVG/1.1/DTD/svg11.dtd"><svg t="1632739701903" class="icon" viewBox="0 0 1024 1024" version="1.1" xmlns="http://www.w3.org/2000/svg" p-id="7207" xmlns:xlink="http://www.w3.org/1999/xlink" width="32" height="32"><defs><style type="text/css"></style></defs><path d="M665.649951 355.352976c-34.766049 9.191024-67.633951 27.672976-67.633951 68.632975 0 81.92 125.976976 64.536976 125.976976 163.84 0 57.344-68.632976 166.936976-100.401952 218.186927-32.768 54.247024-66.535024 108.494049-111.591024 153.649951-49.152-48.152976-86.016-108.593951-121.880976-166.936975-31.768976-53.248-90.112-147.555902-90.112-207.896976 0-47.153951 31.768976-66.535024 67.633952-88.113951 27.573073-16.384 58.343024-34.766049 58.343024-70.730927 0-39.960976-33.767024-63.537951-68.632976-70.730927V204.8c0-35.864976-1.998049-49.152 20.48-79.921951 31.868878-41.959024 82.019902-60.440976 134.268878-60.440976 54.247024 0 109.592976 23.576976 138.264976 72.728976 16.384 26.673951 15.384976 45.056 15.384976 73.728l-0.099903 144.458927zM525.287024 781.336976h75.825952c26.574049-42.058927 86.016-138.264976 86.016-186.417952 0-83.918049-126.976-72.728976-126.976-171.032975 0-44.056976 32.768-76.824976 72.728975-91.111025v-120.881951c0-24.576 0-39.960976-14.385951-62.439024-22.577951-35.864976-64.536976-55.246049-106.496-55.246049-35.864976 0-73.728 15.384976-97.304976 42.058927-18.481951 22.577951-21.578927 39.960976-21.578926 67.633951v129.073951c43.057951 13.287024 71.729951 53.248 71.729951 98.304 0 86.016-126.976 84.017951-126.976 158.744976 0 50.151024 58.343024 148.554927 87.015024 191.512975h74.727025l-4.096-97.304975c-30.670049-8.192-66.535024-28.672-66.535025-64.536976 0-46.055024 38.961951-70.730927 82.919025-70.730927 41.959024 0 82.919024 23.576976 82.919024 71.729952 0 36.864-33.767024 55.345951-65.536 63.537951l-3.996098 97.105171z" p-id="7208" fill="#ffffff"></path></svg>