<?xml version="1.0" standalone="no"?><!DOCTYPE svg PUBLIC "-//W3C//DTD SVG 1.1//EN" "http://www.w3.org/Graphics/SVG/1.1/DTD/svg11.dtd"><svg t="1632708813858" class="icon" viewBox="0 0 1024 1024" version="1.1" xmlns="http://www.w3.org/2000/svg" p-id="8296" xmlns:xlink="http://www.w3.org/1999/xlink" width="32" height="32"><defs><style type="text/css"></style></defs><path d="M185.229 533.249c0-154.241-0.008-308.483 0.072-462.724 0.002-2.609 1.089-5.216 1.67-7.826 1.79 2.09 3.276 4.577 5.414 6.212C259 119.917 325.637 170.893 392.354 221.762c146.132 111.422 292.311 222.783 438.458 334.187 2.36 1.799 4.55 3.819 6.819 5.735l-0.792 2.243c-3.342 0-6.685-0.082-10.023 0.014-25.52 0.729-51.162 0.161-76.528 2.542-42.921 4.029-85.757 9.283-128.448 15.306-21.999 3.104-43.593 9.05-65.403 13.548-6.074 1.252-7.15 4.117-3.912 9.126 1.103 1.705 2.101 3.475 3.16 5.208 43.466 71.031 86.833 142.124 130.477 213.047 9.995 16.243 16.114 33.632 15.853 52.558-0.616 44.568-32.852 83.388-76.24 93.21-2.926 0.664-5.563 2.601-8.335 3.945h-24.398c-2.105-1.229-4.07-3.079-6.337-3.592-31.295-7.058-54.91-23.931-68.865-53.324-3.852-8.111-7.758-16.201-11.473-24.377-33.917-74.642-67.87-149.268-101.583-224.003-3.418-7.577-6.78-8.244-13.807-4.046-68.336 40.826-128.02 92-181.425 150.749-6.671 7.338-13.042 14.949-20.975 24.07 0-5.499 0.011-8.647-0.001-11.796-0.367-92.575-0.702-185.15-1.198-277.725-0.03-5.05-1.402-10.093-2.149-15.138z" p-id="8297" fill="#ffffff"></path></svg>